<svg xmlns="http://www.w3.org/2000/svg" xmlns:xlink="http://www.w3.org/1999/xlink" width="500" zoomAndPan="magnify" viewBox="0 0 375 374.999991" height="500" preserveAspectRatio="xMidYMid meet" version="1.0"><defs><clipPath id="7de2a2a3b2"><path d="M 5.527344 5.527344 L 368.527344 5.527344 L 368.527344 368.527344 L 5.527344 368.527344 Z M 5.527344 5.527344 " clip-rule="nonzero"/></clipPath><clipPath id="ef419118bc"><path d="M 24 24 L 350.25 24 L 350.25 350.25 L 24 350.25 Z M 24 24 " clip-rule="nonzero"/></clipPath><clipPath id="10c7d73dd5"><path d="M 120 122 L 293.769531 122 L 293.769531 293.769531 L 120 293.769531 Z M 120 122 " clip-rule="nonzero"/></clipPath><clipPath id="027d417243"><path d="M 80.019531 80.019531 L 254 80.019531 L 254 251 L 80.019531 251 Z M 80.019531 80.019531 " clip-rule="nonzero"/></clipPath></defs><g clip-path="url(#7de2a2a3b2)"><path fill="#eba802" d="M 187.027344 5.527344 C 86.789062 5.527344 5.527344 86.789062 5.527344 187.027344 C 5.527344 287.269531 86.789062 368.527344 187.027344 368.527344 C 287.269531 368.527344 368.527344 287.269531 368.527344 187.027344 C 368.527344 86.789062 287.269531 5.527344 187.027344 5.527344 " fill-opacity="1" fill-rule="nonzero"/></g><g clip-path="url(#ef419118bc)"><path fill="#252b53" d="M 187.125 24 C 97.03125 24 24 97.03125 24 187.125 C 24 277.214844 97.03125 350.25 187.125 350.25 C 277.214844 350.25 350.25 277.214844 350.25 187.125 C 350.25 97.03125 277.214844 24 187.125 24 " fill-opacity="1" fill-rule="nonzero"/></g><g clip-path="url(#10c7d73dd5)"><path fill="#ffffff" d="M 261.683594 130.789062 C 264.710938 134.800781 267.394531 139.03125 269.730469 143.480469 C 272.070312 147.925781 274.035156 152.535156 275.621094 157.300781 C 277.210938 162.070312 278.40625 166.933594 279.203125 171.894531 C 280 176.859375 280.390625 181.851562 280.375 186.875 C 280.375 238.410156 238.449219 280.335938 186.914062 280.335938 C 178.710938 280.347656 170.648438 279.285156 162.726562 277.152344 C 154.804688 275.019531 147.300781 271.886719 140.214844 267.757812 L 156.519531 259.605469 L 150.550781 247.664062 L 123.847656 261 C 123.292969 261.277344 122.785156 261.625 122.328125 262.042969 C 121.871094 262.460938 121.476562 262.9375 121.152344 263.464844 C 120.828125 263.992188 120.578125 264.550781 120.410156 265.148438 C 120.238281 265.746094 120.15625 266.351562 120.15625 266.972656 L 120.15625 293.675781 L 133.507812 293.675781 L 133.507812 279.390625 C 137.542969 281.734375 141.71875 283.804688 146.03125 285.59375 C 150.339844 287.386719 154.75 288.882812 159.261719 290.089844 C 163.769531 291.296875 168.339844 292.203125 172.96875 292.804688 C 177.597656 293.40625 182.246094 293.703125 186.914062 293.6875 C 245.808594 293.6875 293.726562 245.773438 293.726562 186.875 C 293.742188 181.132812 293.296875 175.425781 292.386719 169.753906 C 291.472656 164.082031 290.109375 158.523438 288.292969 153.074219 C 286.480469 147.625 284.234375 142.359375 281.5625 137.277344 C 278.890625 132.191406 275.824219 127.355469 272.363281 122.773438 Z M 261.683594 130.789062 " fill-opacity="1" fill-rule="nonzero"/></g><g clip-path="url(#027d417243)"><path fill="#ffffff" d="M 240.320312 94.335938 C 236.28125 91.992188 232.105469 89.925781 227.792969 88.136719 C 223.484375 86.347656 219.070312 84.851562 214.5625 83.644531 C 210.050781 82.4375 205.484375 81.535156 200.855469 80.933594 C 196.222656 80.332031 191.574219 80.039062 186.90625 80.050781 C 128.011719 80.050781 80.101562 127.972656 80.101562 186.875 C 80.082031 192.621094 80.53125 198.324219 81.441406 203.996094 C 82.351562 209.664062 83.71875 215.222656 85.53125 220.671875 C 87.347656 226.121094 89.59375 231.386719 92.265625 236.46875 C 94.9375 241.550781 98.003906 246.382812 101.464844 250.96875 L 112.144531 242.949219 C 109.117188 238.9375 106.433594 234.710938 104.097656 230.261719 C 101.757812 225.816406 99.792969 221.210938 98.203125 216.445312 C 96.617188 211.679688 95.421875 206.8125 94.625 201.855469 C 93.828125 196.894531 93.4375 191.902344 93.453125 186.875 C 93.453125 135.335938 135.378906 93.402344 186.90625 93.402344 C 195.113281 93.390625 203.175781 94.453125 211.101562 96.582031 C 219.023438 98.714844 226.53125 101.847656 233.621094 105.976562 L 217.300781 114.132812 L 223.273438 126.078125 L 249.980469 112.726562 C 250.535156 112.449219 251.042969 112.101562 251.5 111.683594 C 251.957031 111.265625 252.347656 110.792969 252.675781 110.265625 C 253 109.738281 253.25 109.175781 253.417969 108.578125 C 253.585938 107.984375 253.671875 107.375 253.671875 106.753906 L 253.671875 80.050781 L 240.320312 80.050781 Z M 240.320312 94.335938 " fill-opacity="1" fill-rule="nonzero"/></g><path fill="#ffffff" d="M 186.914062 150.699219 C 177.53125 142.652344 155.542969 129.746094 118.324219 140.390625 C 117.625 140.589844 116.980469 140.894531 116.378906 141.304688 C 115.78125 141.714844 115.265625 142.210938 114.828125 142.789062 C 114.390625 143.367188 114.058594 144 113.828125 144.691406 C 113.597656 145.378906 113.480469 146.082031 113.480469 146.808594 L 113.480469 226.917969 C 113.480469 227.433594 113.539062 227.945312 113.65625 228.449219 C 113.773438 228.953125 113.949219 229.433594 114.179688 229.898438 C 114.410156 230.359375 114.6875 230.789062 115.019531 231.1875 C 115.347656 231.585938 115.71875 231.9375 116.132812 232.25 C 116.546875 232.5625 116.988281 232.820312 117.460938 233.03125 C 117.933594 233.238281 118.425781 233.390625 118.933594 233.484375 C 119.441406 233.578125 119.953125 233.613281 120.46875 233.589844 C 120.984375 233.566406 121.492188 233.480469 121.988281 233.339844 C 163.359375 221.53125 180.882812 243.378906 181.574219 244.269531 C 182.203125 245.101562 182.980469 245.75 183.914062 246.21875 C 184.84375 246.683594 185.832031 246.917969 186.875 246.925781 L 186.925781 246.925781 C 187.960938 246.921875 188.945312 246.691406 189.875 246.230469 C 190.800781 245.773438 191.585938 245.136719 192.21875 244.316406 C 192.941406 243.382812 210.445312 221.507812 251.839844 233.339844 C 252.335938 233.480469 252.839844 233.5625 253.359375 233.589844 C 253.875 233.613281 254.386719 233.578125 254.894531 233.484375 C 255.402344 233.390625 255.894531 233.238281 256.367188 233.03125 C 256.839844 232.820312 257.28125 232.5625 257.695312 232.25 C 258.105469 231.9375 258.476562 231.585938 258.808594 231.1875 C 259.136719 230.789062 259.417969 230.359375 259.648438 229.898438 C 259.878906 229.433594 260.054688 228.953125 260.171875 228.449219 C 260.289062 227.945312 260.347656 227.433594 260.347656 226.917969 L 260.347656 146.808594 C 260.347656 146.082031 260.230469 145.378906 260 144.691406 C 259.769531 144 259.4375 143.367188 259 142.789062 C 258.5625 142.210938 258.046875 141.714844 257.445312 141.304688 C 256.847656 140.894531 256.199219 140.589844 255.503906 140.390625 C 218.265625 129.753906 196.289062 142.652344 186.914062 150.699219 Z M 246.996094 159.03125 C 216.222656 155.261719 202.816406 168.191406 202.222656 168.792969 L 211.574219 178.316406 C 212.023438 177.90625 222.058594 168.898438 246.996094 172.464844 L 246.996094 180.925781 C 216.238281 177.164062 202.816406 190.09375 202.222656 190.691406 L 211.574219 200.214844 C 212.023438 199.800781 222.058594 190.785156 246.996094 194.359375 L 246.996094 218.410156 C 221.46875 213.222656 204.019531 219.453125 193.589844 225.945312 L 193.589844 200.214844 L 180.238281 200.214844 L 180.238281 225.9375 C 172.535156 221.136719 161.007812 216.472656 145.191406 216.472656 C 139.003906 216.503906 132.886719 217.148438 126.832031 218.410156 L 126.832031 194.359375 C 151.730469 190.785156 161.804688 199.800781 162.25 200.214844 L 171.605469 190.691406 C 171.003906 190.089844 157.574219 177.171875 126.832031 180.925781 L 126.832031 172.460938 C 151.757812 168.894531 161.804688 177.90625 162.25 178.3125 L 171.605469 168.792969 C 171.003906 168.191406 157.609375 155.261719 126.832031 159.027344 L 126.832031 151.96875 C 159.203125 144.417969 175.695312 158.027344 180.238281 162.6875 L 180.238281 186.863281 L 193.589844 186.863281 L 193.589844 162.695312 C 198.179688 157.996094 214.683594 144.4375 246.996094 151.96875 Z M 246.996094 159.03125 " fill-opacity="1" fill-rule="nonzero"/></svg>